<svg xmlns="http://www.w3.org/2000/svg" xmlns:xlink="http://www.w3.org/1999/xlink" xmlns:lucid="lucid" width="765.25" height="796"><g transform="translate(-148.35000000000002 -1060)" lucid:page-tab-id="711RtfH~5HMJ"><path d="M0 0h1948.1v1952H0z" fill="#fff"/><path d="M346.3 1545c0-2.76 2.24-5 5-5h336.3c2.76 0 5 2.24 5 5v286c0 2.76-2.24 5-5 5H351.3c-2.76 0-5-2.24-5-5z" fill="#fff"/><path d="M346.3 1540h346.3v40H346.3z" fill="#ccc"/><path d="M346.3 1545c0-2.76 2.24-5 5-5h336.3c2.76 0 5 2.24 5 5v286c0 2.76-2.24 5-5 5H351.3c-2.76 0-5-2.24-5-5zM346.3 1580h346.3M406.67 1580v256M570.8 1580v256" stroke="#000" fill="none"/><use xlink:href="#a" transform="matrix(1,0,0,1,356.2999999999999,1540) translate(128.025 23.6)"/><use xlink:href="#b" transform="matrix(1,0,0,1,351.2999999999999,1582.5) translate(13.5 17.1)"/><use xlink:href="#c" transform="matrix(1,0,0,1,411.6666666666667,1582.5) translate(0 17.1)"/><use xlink:href="#d" transform="matrix(1,0,0,1,575.8,1582.5) translate(0 17.1)"/><use xlink:href="#e" transform="matrix(1,0,0,1,411.6666666666667,1614.5) translate(0 17.1)"/><use xlink:href="#f" transform="matrix(1,0,0,1,575.8,1614.5) translate(0 17.1)"/><use xlink:href="#g" transform="matrix(1,0,0,1,351.2999999999999,1646.5) translate(9.024999999999999 17.1)"/><use xlink:href="#h" transform="matrix(1,0,0,1,411.6666666666667,1646.5) translate(0 17.1)"/><use xlink:href="#d" transform="matrix(1,0,0,1,575.8,1646.5) translate(0 17.1)"/><use xlink:href="#i" transform="matrix(1,0,0,1,351.2999999999999,1678.5) translate(9.024999999999999 17.1)"/><use xlink:href="#j" transform="matrix(1,0,0,1,411.6666666666667,1678.5) translate(0 17.1)"/><use xlink:href="#d" transform="matrix(1,0,0,1,575.8,1678.5) translate(0 17.1)"/><use xlink:href="#k" transform="matrix(1,0,0,1,411.6666666666667,1710.5) translate(0 17.1)"/><use xlink:href="#l" transform="matrix(1,0,0,1,575.8,1710.5) translate(0 17.1)"/><use xlink:href="#m" transform="matrix(1,0,0,1,411.6666666666667,1742.5) translate(0 17.1)"/><use xlink:href="#n" transform="matrix(1,0,0,1,575.8,1742.5) translate(0 17.1)"/><use xlink:href="#o" transform="matrix(1,0,0,1,411.6666666666667,1774.5) translate(0 17.1)"/><use xlink:href="#d" transform="matrix(1,0,0,1,575.8,1774.5) translate(0 17.1)"/><use xlink:href="#p" transform="matrix(1,0,0,1,411.6666666666667,1806.5) translate(0 17.1)"/><use xlink:href="#q" transform="matrix(1,0,0,1,575.8,1806.5) translate(0 17.1)"/><path d="M520 1205c0-2.76 2.24-5 5-5h363.6c2.76 0 5 2.24 5 5v190c0 2.76-2.24 5-5 5H525c-2.76 0-5-2.24-5-5z" fill="#fff"/><path d="M520 1200h373.6v40H520z" fill="#ccc"/><path d="M520 1205c0-2.76 2.24-5 5-5h363.6c2.76 0 5 2.24 5 5v190c0 2.76-2.24 5-5 5H525c-2.76 0-5-2.24-5-5zM520 1240h373.6M564 1240v160M722.7 1240v160" stroke="#000" fill="none"/><use xlink:href="#r" transform="matrix(1,0,0,1,530,1200) translate(133.575 23.6)"/><use xlink:href="#b" transform="matrix(1,0,0,1,525,1242.5) translate(5 17.1)"/><use xlink:href="#j" transform="matrix(1,0,0,1,569,1242.5) translate(0 17.1)"/><use xlink:href="#d" transform="matrix(1,0,0,1,727.7,1242.5) translate(0 17.1)"/><use xlink:href="#s" transform="matrix(1,0,0,1,569,1274.5) translate(0 17.1)"/><use xlink:href="#t" transform="matrix(1,0,0,1,727.7,1274.5) translate(0 17.1)"/><use xlink:href="#u" transform="matrix(1,0,0,1,525,1306.5) translate(10 17.1)"/><use xlink:href="#v" transform="matrix(1,0,0,1,569,1306.5) translate(0 17.1)"/><use xlink:href="#w" transform="matrix(1,0,0,1,727.7,1306.5) translate(0 17.1)"/><use xlink:href="#u" transform="matrix(1,0,0,1,525,1338.5) translate(10 17.1)"/><use xlink:href="#x" transform="matrix(1,0,0,1,569,1338.5) translate(0 17.1)"/><use xlink:href="#y" transform="matrix(1,0,0,1,727.7,1338.5) translate(0 17.1)"/><use xlink:href="#u" transform="matrix(1,0,0,1,525,1370.5) translate(10 17.1)"/><use xlink:href="#z" transform="matrix(1,0,0,1,569,1370.5) translate(0 17.1)"/><use xlink:href="#f" transform="matrix(1,0,0,1,727.7,1370.5) translate(0 17.1)"/><path d="M597.33 1420.5v100.18" stroke="#000" stroke-width="2" fill="none"/><path d="M587.33 1420.5h20M597.33 1400.5v20M587.33 1539.05l10-20 10 20M597.33 1539.05v-20" stroke="#000" stroke-width="2" fill="#fff"/><path d="M168.35 1085c0-2.76 2.24-5 5-5h302.6c2.76 0 5 2.24 5 5v382c0 2.76-2.24 5-5 5h-302.6c-2.76 0-5-2.24-5-5z" fill="#fff"/><path d="M168.35 1080h312.6v40h-312.6z" fill="#ccc"/><path d="M168.35 1085c0-2.76 2.24-5 5-5h302.6c2.76 0 5 2.24 5 5v382c0 2.76-2.24 5-5 5h-302.6c-2.76 0-5-2.24-5-5zM168.35 1120h312.6M212.35 1120v352M359.15 1120v352" stroke="#000" fill="none"/><use xlink:href="#A" transform="matrix(1,0,0,1,178.35000000000002,1080) translate(109.07499999999999 23.6)"/><use xlink:href="#b" transform="matrix(1,0,0,1,173.35000000000002,1122.5) translate(5 17.1)"/><use xlink:href="#h" transform="matrix(1,0,0,1,217.35000000000002,1122.5) translate(0 17.1)"/><use xlink:href="#d" transform="matrix(1,0,0,1,364.15000000000003,1122.5) translate(0 17.1)"/><use xlink:href="#B" transform="matrix(1,0,0,1,217.35000000000002,1154.5) translate(0 17.1)"/><use xlink:href="#f" transform="matrix(1,0,0,1,364.15000000000003,1154.5) translate(0 17.1)"/><use xlink:href="#C" transform="matrix(1,0,0,1,217.35000000000002,1186.5) translate(0 17.1)"/><use xlink:href="#D" transform="matrix(1,0,0,1,364.15000000000003,1186.5) translate(0 17.1)"/><use xlink:href="#u" transform="matrix(1,0,0,1,173.35000000000002,1218.5) translate(10 17.1)"/><use xlink:href="#E" transform="matrix(1,0,0,1,217.35000000000002,1218.5) translate(0 17.1)"/><use xlink:href="#D" transform="matrix(1,0,0,1,364.15000000000003,1218.5) translate(0 17.1)"/><use xlink:href="#F" transform="matrix(1,0,0,1,217.35000000000002,1250.5) translate(0 17.1)"/><use xlink:href="#G" transform="matrix(1,0,0,1,364.15000000000003,1250.5) translate(0 17.1)"/><use xlink:href="#H" transform="matrix(1,0,0,1,217.35000000000002,1282.5) translate(0 17.1)"/><use xlink:href="#t" transform="matrix(1,0,0,1,364.15000000000003,1282.5) translate(0 17.1)"/><use xlink:href="#u" transform="matrix(1,0,0,1,173.35000000000002,1314.5) translate(10 17.1)"/><use xlink:href="#I" transform="matrix(1,0,0,1,217.35000000000002,1314.5) translate(0 17.1)"/><use xlink:href="#t" transform="matrix(1,0,0,1,364.15000000000003,1314.5) translate(0 17.1)"/><use xlink:href="#u" transform="matrix(1,0,0,1,173.35000000000002,1346.5) translate(10 17.1)"/><use xlink:href="#J" transform="matrix(1,0,0,1,217.35000000000002,1346.5) translate(0 17.1)"/><use xlink:href="#K" transform="matrix(1,0,0,1,364.15000000000003,1346.5) translate(0 17.1)"/><use xlink:href="#L" transform="matrix(1,0,0,1,217.35000000000002,1378.5) translate(0 17.1)"/><use xlink:href="#t" transform="matrix(1,0,0,1,364.15000000000003,1378.5) translate(0 17.1)"/><use xlink:href="#M" transform="matrix(1,0,0,1,217.35000000000002,1410.5) translate(0 17.1)"/><use xlink:href="#N" transform="matrix(1,0,0,1,364.15000000000003,1410.5) translate(0 17.1)"/><use xlink:href="#u" transform="matrix(1,0,0,1,173.35000000000002,1442.5) translate(10 17.1)"/><use xlink:href="#O" transform="matrix(1,0,0,1,217.35000000000002,1442.5) translate(0 17.1)"/><use xlink:href="#N" transform="matrix(1,0,0,1,364.15000000000003,1442.5) translate(0 17.1)"/><path d="M426.06 1492.5v28.18" stroke="#000" stroke-width="2" fill="none"/><path d="M416.06 1492.5h20M426.06 1472.5v20M416.06 1539.05l10-20 10 20M426.06 1539.05v-20" stroke="#000" stroke-width="2" fill="#fff"/><defs><path d="M30-248c87 1 191-15 191 75 0 78-77 80-158 76V0H30v-248zm33 125c57 0 124 11 124-50 0-59-68-47-124-48v98" id="P"/><path d="M114-163C36-179 61-72 57 0H25l-1-190h30c1 12-1 29 2 39 6-27 23-49 58-41v29" id="Q"/><path d="M100-194c62-1 85 37 85 99 1 63-27 99-86 99S16-35 15-95c0-66 28-99 85-99zM99-20c44 1 53-31 53-75 0-43-8-75-51-75s-53 32-53 75 10 74 51 75" id="R"/><path d="M85-194c31 0 48 13 60 33l-1-100h32l1 261h-30c-2-10 0-23-3-31C134-8 116 4 85 4 32 4 16-35 15-94c0-66 23-100 70-100zm9 24c-40 0-46 34-46 75 0 40 6 74 45 74 42 0 51-32 51-76 0-42-9-74-50-73" id="S"/><path d="M84 4C-5 8 30-112 23-190h32v120c0 31 7 50 39 49 72-2 45-101 50-169h31l1 190h-30c-1-10 1-25-2-33-11 22-28 36-60 37" id="T"/><path d="M96-169c-40 0-48 33-48 73s9 75 48 75c24 0 41-14 43-38l32 2c-6 37-31 61-74 61-59 0-76-41-82-99-10-93 101-131 147-64 4 7 5 14 7 22l-32 3c-4-21-16-35-41-35" id="U"/><path d="M59-47c-2 24 18 29 38 22v24C64 9 27 4 27-40v-127H5v-23h24l9-43h21v43h35v23H59v120" id="V"/><path d="M135-143c-3-34-86-38-87 0 15 53 115 12 119 90S17 21 10-45l28-5c4 36 97 45 98 0-10-56-113-15-118-90-4-57 82-63 122-42 12 7 21 19 24 35" id="W"/><g id="a"><use transform="matrix(0.05,0,0,0.05,0,0)" xlink:href="#P"/><use transform="matrix(0.05,0,0,0.05,12,0)" xlink:href="#Q"/><use transform="matrix(0.05,0,0,0.05,17.95,0)" xlink:href="#R"/><use transform="matrix(0.05,0,0,0.05,27.950000000000003,0)" xlink:href="#S"/><use transform="matrix(0.05,0,0,0.05,37.95,0)" xlink:href="#T"/><use transform="matrix(0.05,0,0,0.05,47.95,0)" xlink:href="#U"/><use transform="matrix(0.05,0,0,0.05,56.95,0)" xlink:href="#V"/><use transform="matrix(0.05,0,0,0.05,61.95,0)" xlink:href="#W"/></g><path d="M194 0L95-120 63-95V0H30v-248h33v124l119-124h40L117-140 236 0h-42" id="X"/><g id="b"><use transform="matrix(0.05,0,0,0.05,0,0)" xlink:href="#P"/><use transform="matrix(0.05,0,0,0.05,12,0)" xlink:href="#X"/></g><path d="M33 0v-248h34V0H33" id="Y"/><path d="M30-248c118-7 216 8 213 122C240-48 200 0 122 0H30v-248zM63-27c89 8 146-16 146-99s-60-101-146-95v194" id="Z"/><g id="c"><use transform="matrix(0.05,0,0,0.05,0,0)" xlink:href="#P"/><use transform="matrix(0.05,0,0,0.05,12,0)" xlink:href="#Q"/><use transform="matrix(0.05,0,0,0.05,17.95,0)" xlink:href="#R"/><use transform="matrix(0.05,0,0,0.05,27.950000000000003,0)" xlink:href="#S"/><use transform="matrix(0.05,0,0,0.05,37.95,0)" xlink:href="#T"/><use transform="matrix(0.05,0,0,0.05,47.95,0)" xlink:href="#U"/><use transform="matrix(0.05,0,0,0.05,56.95,0)" xlink:href="#V"/><use transform="matrix(0.05,0,0,0.05,61.95,0)" xlink:href="#Y"/><use transform="matrix(0.05,0,0,0.05,66.95,0)" xlink:href="#Z"/></g><path d="M24-231v-30h32v30H24zM24 0v-190h32V0H24" id="aa"/><path d="M117-194c89-4 53 116 60 194h-32v-121c0-31-8-49-39-48C34-167 62-67 57 0H25l-1-190h30c1 10-1 24 2 32 11-22 29-35 61-36" id="ab"/><g id="d"><use transform="matrix(0.05,0,0,0.05,0,0)" xlink:href="#aa"/><use transform="matrix(0.05,0,0,0.05,3.95,0)" xlink:href="#ab"/><use transform="matrix(0.05,0,0,0.05,13.949999999999998,0)" xlink:href="#V"/></g><path d="M190 0L58-211 59 0H30v-248h39L202-35l-2-213h31V0h-41" id="ac"/><path d="M141-36C126-15 110 5 73 4 37 3 15-17 15-53c-1-64 63-63 125-63 3-35-9-54-41-54-24 1-41 7-42 31l-33-3c5-37 33-52 76-52 45 0 72 20 72 64v82c-1 20 7 32 28 27v20c-31 9-61-2-59-35zM48-53c0 20 12 33 32 33 41-3 63-29 60-74-43 2-92-5-92 41" id="ad"/><path d="M210-169c-67 3-38 105-44 169h-31v-121c0-29-5-50-35-48C34-165 62-65 56 0H25l-1-190h30c1 10-1 24 2 32 10-44 99-50 107 0 11-21 27-35 58-36 85-2 47 119 55 194h-31v-121c0-29-5-49-35-48" id="ae"/><path d="M100-194c63 0 86 42 84 106H49c0 40 14 67 53 68 26 1 43-12 49-29l28 8c-11 28-37 45-77 45C44 4 14-33 15-96c1-61 26-98 85-98zm52 81c6-60-76-77-97-28-3 7-6 17-6 28h103" id="af"/><g id="e"><use transform="matrix(0.05,0,0,0.05,0,0)" xlink:href="#P"/><use transform="matrix(0.05,0,0,0.05,12,0)" xlink:href="#Q"/><use transform="matrix(0.05,0,0,0.05,17.95,0)" xlink:href="#R"/><use transform="matrix(0.05,0,0,0.05,27.950000000000003,0)" xlink:href="#S"/><use transform="matrix(0.05,0,0,0.05,37.95,0)" xlink:href="#T"/><use transform="matrix(0.05,0,0,0.05,47.95,0)" xlink:href="#U"/><use transform="matrix(0.05,0,0,0.05,56.95,0)" xlink:href="#V"/><use transform="matrix(0.05,0,0,0.05,61.95,0)" xlink:href="#ac"/><use transform="matrix(0.05,0,0,0.05,74.9,0)" xlink:href="#ad"/><use transform="matrix(0.05,0,0,0.05,84.9,0)" xlink:href="#ae"/><use transform="matrix(0.05,0,0,0.05,99.85000000000001,0)" xlink:href="#af"/></g><path d="M108 0H70L1-190h34L89-25l56-165h34" id="ag"/><path d="M106-169C34-169 62-67 57 0H25v-261h32l-1 103c12-21 28-36 61-36 89 0 53 116 60 194h-32v-121c2-32-8-49-39-48" id="ah"/><path d="M87 75C49 33 22-17 22-94c0-76 28-126 65-167h31c-38 41-64 92-64 168S80 34 118 75H87" id="ai"/><path d="M155-56V0h-30v-56H8v-25l114-167h33v167h35v25h-35zm-30-156c-27 46-58 90-88 131h88v-131" id="aj"/><path d="M101-251c68 0 85 55 85 127S166 4 100 4C33 4 14-52 14-124c0-73 17-127 87-127zm-1 229c47 0 54-49 54-102s-4-102-53-102c-51 0-55 48-55 102 0 53 5 102 54 102" id="ak"/><path d="M33-261c38 41 65 92 65 168S71 34 33 75H2C39 34 66-17 66-93S39-220 2-261h31" id="al"/><g id="f"><use transform="matrix(0.05,0,0,0.05,0,0)" xlink:href="#ab"/><use transform="matrix(0.05,0,0,0.05,10,0)" xlink:href="#ag"/><use transform="matrix(0.05,0,0,0.05,19,0)" xlink:href="#ad"/><use transform="matrix(0.05,0,0,0.05,29,0)" xlink:href="#Q"/><use transform="matrix(0.05,0,0,0.05,34.95,0)" xlink:href="#U"/><use transform="matrix(0.05,0,0,0.05,43.95,0)" xlink:href="#ah"/><use transform="matrix(0.05,0,0,0.05,53.95,0)" xlink:href="#ad"/><use transform="matrix(0.05,0,0,0.05,63.95,0)" xlink:href="#Q"/><use transform="matrix(0.05,0,0,0.05,69.9,0)" xlink:href="#ai"/><use transform="matrix(0.05,0,0,0.05,75.85000000000001,0)" xlink:href="#aj"/><use transform="matrix(0.05,0,0,0.05,85.85000000000001,0)" xlink:href="#ak"/><use transform="matrix(0.05,0,0,0.05,95.85000000000001,0)" xlink:href="#al"/></g><path d="M63-220v92h138v28H63V0H30v-248h175v28H63" id="am"/><path d="M27 0v-27h64v-190l-56 39v-29l58-41h29v221h61V0H27" id="an"/><g id="g"><use transform="matrix(0.05,0,0,0.05,0,0)" xlink:href="#am"/><use transform="matrix(0.05,0,0,0.05,10.950000000000001,0)" xlink:href="#X"/><use transform="matrix(0.05,0,0,0.05,22.950000000000003,0)" xlink:href="#an"/></g><path d="M185-189c-5-48-123-54-124 2 14 75 158 14 163 119 3 78-121 87-175 55-17-10-28-26-33-46l33-7c5 56 141 63 141-1 0-78-155-14-162-118-5-82 145-84 179-34 5 7 8 16 11 25" id="ao"/><path d="M115-194c55 1 70 41 70 98S169 2 115 4C84 4 66-9 55-30l1 105H24l-1-265h31l2 30c10-21 28-34 59-34zm-8 174c40 0 45-34 45-75s-6-73-45-74c-42 0-51 32-51 76 0 43 10 73 51 73" id="ap"/><path d="M24 0v-261h32V0H24" id="aq"/><g id="h"><use transform="matrix(0.05,0,0,0.05,0,0)" xlink:href="#ao"/><use transform="matrix(0.05,0,0,0.05,12,0)" xlink:href="#T"/><use transform="matrix(0.05,0,0,0.05,22,0)" xlink:href="#ap"/><use transform="matrix(0.05,0,0,0.05,32,0)" xlink:href="#ap"/><use transform="matrix(0.05,0,0,0.05,42,0)" xlink:href="#aq"/><use transform="matrix(0.05,0,0,0.05,45.95,0)" xlink:href="#aa"/><use transform="matrix(0.05,0,0,0.05,49.900000000000006,0)" xlink:href="#af"/><use transform="matrix(0.05,0,0,0.05,59.900000000000006,0)" xlink:href="#Q"/><use transform="matrix(0.05,0,0,0.05,65.85000000000001,0)" xlink:href="#Y"/><use transform="matrix(0.05,0,0,0.05,70.85000000000001,0)" xlink:href="#Z"/></g><path d="M101-251c82-7 93 87 43 132L82-64C71-53 59-42 53-27h129V0H18c2-99 128-94 128-182 0-28-16-43-45-43s-46 15-49 41l-32-3c6-41 34-60 81-64" id="ar"/><g id="i"><use transform="matrix(0.05,0,0,0.05,0,0)" xlink:href="#am"/><use transform="matrix(0.05,0,0,0.05,10.950000000000001,0)" xlink:href="#X"/><use transform="matrix(0.05,0,0,0.05,22.950000000000003,0)" xlink:href="#ar"/></g><path d="M212-179c-10-28-35-45-73-45-59 0-87 40-87 99 0 60 29 101 89 101 43 0 62-24 78-52l27 14C228-24 195 4 139 4 59 4 22-46 18-125c-6-104 99-153 187-111 19 9 31 26 39 46" id="as"/><path d="M177-190C167-65 218 103 67 71c-23-6-38-20-44-43l32-5c15 47 100 32 89-28v-30C133-14 115 1 83 1 29 1 15-40 15-95c0-56 16-97 71-98 29-1 48 16 59 35 1-10 0-23 2-32h30zM94-22c36 0 50-32 50-73 0-42-14-75-50-75-39 0-46 34-46 75s6 73 46 73" id="at"/><path d="M179-190L93 31C79 59 56 82 12 73V49c39 6 53-20 64-50L1-190h34L92-34l54-156h33" id="au"/><g id="j"><use transform="matrix(0.05,0,0,0.05,0,0)" xlink:href="#as"/><use transform="matrix(0.05,0,0,0.05,12.950000000000001,0)" xlink:href="#ad"/><use transform="matrix(0.05,0,0,0.05,22.950000000000003,0)" xlink:href="#V"/><use transform="matrix(0.05,0,0,0.05,27.950000000000003,0)" xlink:href="#af"/><use transform="matrix(0.05,0,0,0.05,37.95,0)" xlink:href="#at"/><use transform="matrix(0.05,0,0,0.05,47.95,0)" xlink:href="#R"/><use transform="matrix(0.05,0,0,0.05,57.95,0)" xlink:href="#Q"/><use transform="matrix(0.05,0,0,0.05,63.900000000000006,0)" xlink:href="#au"/><use transform="matrix(0.05,0,0,0.05,72.9,0)" xlink:href="#Y"/><use transform="matrix(0.05,0,0,0.05,77.9,0)" xlink:href="#Z"/></g><path d="M140-251c81 0 123 46 123 126C263-53 228-8 163 1c7 30 30 48 69 40v23c-55 16-95-15-103-61C56-3 17-48 17-125c0-80 42-126 123-126zm0 227c63 0 89-41 89-101s-29-99-89-99c-61 0-89 39-89 99S79-25 140-24" id="av"/><path d="M232-93c-1 65-40 97-104 97C67 4 28-28 28-90v-158h33c8 89-33 224 67 224 102 0 64-133 71-224h33v155" id="aw"/><g id="k"><use transform="matrix(0.05,0,0,0.05,0,0)" xlink:href="#av"/><use transform="matrix(0.05,0,0,0.05,14,0)" xlink:href="#T"/><use transform="matrix(0.05,0,0,0.05,24,0)" xlink:href="#ad"/><use transform="matrix(0.05,0,0,0.05,34,0)" xlink:href="#ab"/><use transform="matrix(0.05,0,0,0.05,44,0)" xlink:href="#V"/><use transform="matrix(0.05,0,0,0.05,49,0)" xlink:href="#aa"/><use transform="matrix(0.05,0,0,0.05,52.95,0)" xlink:href="#V"/><use transform="matrix(0.05,0,0,0.05,57.95,0)" xlink:href="#au"/><use transform="matrix(0.05,0,0,0.05,66.95,0)" xlink:href="#P"/><use transform="matrix(0.05,0,0,0.05,78.95,0)" xlink:href="#af"/><use transform="matrix(0.05,0,0,0.05,88.95,0)" xlink:href="#Q"/><use transform="matrix(0.05,0,0,0.05,94.9,0)" xlink:href="#aw"/><use transform="matrix(0.05,0,0,0.05,107.85000000000001,0)" xlink:href="#ab"/><use transform="matrix(0.05,0,0,0.05,117.85000000000001,0)" xlink:href="#aa"/><use transform="matrix(0.05,0,0,0.05,121.80000000000001,0)" xlink:href="#V"/></g><g id="l"><use transform="matrix(0.05,0,0,0.05,0,0)" xlink:href="#ab"/><use transform="matrix(0.05,0,0,0.05,10,0)" xlink:href="#ag"/><use transform="matrix(0.05,0,0,0.05,19,0)" xlink:href="#ad"/><use transform="matrix(0.05,0,0,0.05,29,0)" xlink:href="#Q"/><use transform="matrix(0.05,0,0,0.05,34.95,0)" xlink:href="#U"/><use transform="matrix(0.05,0,0,0.05,43.95,0)" xlink:href="#ah"/><use transform="matrix(0.05,0,0,0.05,53.95,0)" xlink:href="#ad"/><use transform="matrix(0.05,0,0,0.05,63.95,0)" xlink:href="#Q"/><use transform="matrix(0.05,0,0,0.05,69.9,0)" xlink:href="#ai"/><use transform="matrix(0.05,0,0,0.05,75.85000000000001,0)" xlink:href="#ar"/><use transform="matrix(0.05,0,0,0.05,85.85000000000001,0)" xlink:href="#ak"/><use transform="matrix(0.05,0,0,0.05,95.85000000000001,0)" xlink:href="#al"/></g><g id="m"><use transform="matrix(0.05,0,0,0.05,0,0)" xlink:href="#aw"/><use transform="matrix(0.05,0,0,0.05,12.950000000000001,0)" xlink:href="#ab"/><use transform="matrix(0.05,0,0,0.05,22.950000000000003,0)" xlink:href="#aa"/><use transform="matrix(0.05,0,0,0.05,26.900000000000002,0)" xlink:href="#V"/><use transform="matrix(0.05,0,0,0.05,31.900000000000002,0)" xlink:href="#P"/><use transform="matrix(0.05,0,0,0.05,43.900000000000006,0)" xlink:href="#Q"/><use transform="matrix(0.05,0,0,0.05,49.85000000000001,0)" xlink:href="#aa"/><use transform="matrix(0.05,0,0,0.05,53.80000000000001,0)" xlink:href="#U"/><use transform="matrix(0.05,0,0,0.05,62.80000000000001,0)" xlink:href="#af"/></g><g id="n"><use transform="matrix(0.05,0,0,0.05,0,0)" xlink:href="#ae"/><use transform="matrix(0.05,0,0,0.05,14.950000000000001,0)" xlink:href="#R"/><use transform="matrix(0.05,0,0,0.05,24.950000000000003,0)" xlink:href="#ab"/><use transform="matrix(0.05,0,0,0.05,34.95,0)" xlink:href="#af"/><use transform="matrix(0.05,0,0,0.05,44.95,0)" xlink:href="#au"/></g><path d="M140-251c81 0 123 46 123 126C263-46 219 4 140 4 59 4 17-45 17-125s42-126 123-126zm0 227c63 0 89-41 89-101s-29-99-89-99c-61 0-89 39-89 99S79-25 140-24" id="ax"/><g id="o"><use transform="matrix(0.05,0,0,0.05,0,0)" xlink:href="#aw"/><use transform="matrix(0.05,0,0,0.05,12.950000000000001,0)" xlink:href="#ab"/><use transform="matrix(0.05,0,0,0.05,22.950000000000003,0)" xlink:href="#aa"/><use transform="matrix(0.05,0,0,0.05,26.900000000000002,0)" xlink:href="#V"/><use transform="matrix(0.05,0,0,0.05,31.900000000000002,0)" xlink:href="#W"/><use transform="matrix(0.05,0,0,0.05,40.900000000000006,0)" xlink:href="#ax"/><use transform="matrix(0.05,0,0,0.05,54.900000000000006,0)" xlink:href="#ab"/><use transform="matrix(0.05,0,0,0.05,64.9,0)" xlink:href="#ax"/><use transform="matrix(0.05,0,0,0.05,78.9,0)" xlink:href="#Q"/><use transform="matrix(0.05,0,0,0.05,84.85000000000001,0)" xlink:href="#S"/><use transform="matrix(0.05,0,0,0.05,94.85000000000001,0)" xlink:href="#af"/><use transform="matrix(0.05,0,0,0.05,104.85000000000001,0)" xlink:href="#Q"/></g><g id="p"><use transform="matrix(0.05,0,0,0.05,0,0)" xlink:href="#Z"/><use transform="matrix(0.05,0,0,0.05,12.950000000000001,0)" xlink:href="#aa"/><use transform="matrix(0.05,0,0,0.05,16.900000000000002,0)" xlink:href="#W"/><use transform="matrix(0.05,0,0,0.05,25.900000000000002,0)" xlink:href="#U"/><use transform="matrix(0.05,0,0,0.05,34.900000000000006,0)" xlink:href="#R"/><use transform="matrix(0.05,0,0,0.05,44.900000000000006,0)" xlink:href="#ab"/><use transform="matrix(0.05,0,0,0.05,54.900000000000006,0)" xlink:href="#V"/><use transform="matrix(0.05,0,0,0.05,59.900000000000006,0)" xlink:href="#aa"/><use transform="matrix(0.05,0,0,0.05,63.85,0)" xlink:href="#ab"/><use transform="matrix(0.05,0,0,0.05,73.85000000000001,0)" xlink:href="#T"/><use transform="matrix(0.05,0,0,0.05,83.85000000000001,0)" xlink:href="#af"/><use transform="matrix(0.05,0,0,0.05,93.85000000000001,0)" xlink:href="#S"/></g><path d="M115-194c53 0 69 39 70 98 0 66-23 100-70 100C84 3 66-7 56-30L54 0H23l1-261h32v101c10-23 28-34 59-34zm-8 174c40 0 45-34 45-75 0-40-5-75-45-74-42 0-51 32-51 76 0 43 10 73 51 73" id="ay"/><g id="q"><use transform="matrix(0.05,0,0,0.05,0,0)" xlink:href="#ay"/><use transform="matrix(0.05,0,0,0.05,10,0)" xlink:href="#aa"/><use transform="matrix(0.05,0,0,0.05,13.949999999999998,0)" xlink:href="#V"/></g><g id="r"><use transform="matrix(0.05,0,0,0.05,0,0)" xlink:href="#as"/><use transform="matrix(0.05,0,0,0.05,12.950000000000001,0)" xlink:href="#ad"/><use transform="matrix(0.05,0,0,0.05,22.950000000000003,0)" xlink:href="#V"/><use transform="matrix(0.05,0,0,0.05,27.950000000000003,0)" xlink:href="#af"/><use transform="matrix(0.05,0,0,0.05,37.95,0)" xlink:href="#at"/><use transform="matrix(0.05,0,0,0.05,47.95,0)" xlink:href="#R"/><use transform="matrix(0.05,0,0,0.05,57.95,0)" xlink:href="#Q"/><use transform="matrix(0.05,0,0,0.05,63.900000000000006,0)" xlink:href="#aa"/><use transform="matrix(0.05,0,0,0.05,67.85000000000001,0)" xlink:href="#af"/><use transform="matrix(0.05,0,0,0.05,77.85000000000001,0)" xlink:href="#W"/></g><g id="s"><use transform="matrix(0.05,0,0,0.05,0,0)" xlink:href="#as"/><use transform="matrix(0.05,0,0,0.05,12.950000000000001,0)" xlink:href="#ad"/><use transform="matrix(0.05,0,0,0.05,22.950000000000003,0)" xlink:href="#V"/><use transform="matrix(0.05,0,0,0.05,27.950000000000003,0)" xlink:href="#af"/><use transform="matrix(0.05,0,0,0.05,37.95,0)" xlink:href="#at"/><use transform="matrix(0.05,0,0,0.05,47.95,0)" xlink:href="#R"/><use transform="matrix(0.05,0,0,0.05,57.95,0)" xlink:href="#Q"/><use transform="matrix(0.05,0,0,0.05,63.900000000000006,0)" xlink:href="#au"/><use transform="matrix(0.05,0,0,0.05,72.9,0)" xlink:href="#ac"/><use transform="matrix(0.05,0,0,0.05,85.85000000000001,0)" xlink:href="#ad"/><use transform="matrix(0.05,0,0,0.05,95.85000000000001,0)" xlink:href="#ae"/><use transform="matrix(0.05,0,0,0.05,110.80000000000001,0)" xlink:href="#af"/></g><path d="M54-142c48-35 137-8 131 61C196 18 31 33 14-55l32-4c7 23 22 37 52 37 35-1 51-22 54-58 4-55-73-65-99-34H22l8-134h141v27H59" id="az"/><g id="t"><use transform="matrix(0.05,0,0,0.05,0,0)" xlink:href="#ab"/><use transform="matrix(0.05,0,0,0.05,10,0)" xlink:href="#ag"/><use transform="matrix(0.05,0,0,0.05,19,0)" xlink:href="#ad"/><use transform="matrix(0.05,0,0,0.05,29,0)" xlink:href="#Q"/><use transform="matrix(0.05,0,0,0.05,34.95,0)" xlink:href="#U"/><use transform="matrix(0.05,0,0,0.05,43.95,0)" xlink:href="#ah"/><use transform="matrix(0.05,0,0,0.05,53.95,0)" xlink:href="#ad"/><use transform="matrix(0.05,0,0,0.05,63.95,0)" xlink:href="#Q"/><use transform="matrix(0.05,0,0,0.05,69.9,0)" xlink:href="#ai"/><use transform="matrix(0.05,0,0,0.05,75.85000000000001,0)" xlink:href="#an"/><use transform="matrix(0.05,0,0,0.05,85.85000000000001,0)" xlink:href="#az"/><use transform="matrix(0.05,0,0,0.05,95.85000000000001,0)" xlink:href="#al"/></g><use transform="matrix(0.05,0,0,0.05,0,0)" xlink:href="#ax" id="u"/><g id="v"><use transform="matrix(0.05,0,0,0.05,0,0)" xlink:href="#Z"/><use transform="matrix(0.05,0,0,0.05,12.950000000000001,0)" xlink:href="#af"/><use transform="matrix(0.05,0,0,0.05,22.950000000000003,0)" xlink:href="#W"/><use transform="matrix(0.05,0,0,0.05,31.950000000000003,0)" xlink:href="#U"/><use transform="matrix(0.05,0,0,0.05,40.95,0)" xlink:href="#Q"/><use transform="matrix(0.05,0,0,0.05,46.900000000000006,0)" xlink:href="#aa"/><use transform="matrix(0.05,0,0,0.05,50.85000000000001,0)" xlink:href="#ap"/><use transform="matrix(0.05,0,0,0.05,60.85,0)" xlink:href="#V"/><use transform="matrix(0.05,0,0,0.05,65.85000000000001,0)" xlink:href="#aa"/><use transform="matrix(0.05,0,0,0.05,69.80000000000001,0)" xlink:href="#R"/><use transform="matrix(0.05,0,0,0.05,79.80000000000001,0)" xlink:href="#ab"/></g><path d="M141 0L90-78 38 0H4l68-98-65-92h35l48 74 47-74h35l-64 92 68 98h-35" id="aA"/><g id="w"><use transform="matrix(0.05,0,0,0.05,0,0)" xlink:href="#ab"/><use transform="matrix(0.05,0,0,0.05,10,0)" xlink:href="#V"/><use transform="matrix(0.05,0,0,0.05,15,0)" xlink:href="#af"/><use transform="matrix(0.05,0,0,0.05,25,0)" xlink:href="#aA"/><use transform="matrix(0.05,0,0,0.05,34,0)" xlink:href="#V"/></g><g id="x"><use transform="matrix(0.05,0,0,0.05,0,0)" xlink:href="#P"/><use transform="matrix(0.05,0,0,0.05,12,0)" xlink:href="#aa"/><use transform="matrix(0.05,0,0,0.05,15.949999999999998,0)" xlink:href="#U"/><use transform="matrix(0.05,0,0,0.05,24.95,0)" xlink:href="#V"/><use transform="matrix(0.05,0,0,0.05,29.950000000000003,0)" xlink:href="#T"/><use transform="matrix(0.05,0,0,0.05,39.95,0)" xlink:href="#Q"/><use transform="matrix(0.05,0,0,0.05,45.900000000000006,0)" xlink:href="#af"/></g><g id="y"><use transform="matrix(0.05,0,0,0.05,0,0)" xlink:href="#ag"/><use transform="matrix(0.05,0,0,0.05,9,0)" xlink:href="#ad"/><use transform="matrix(0.05,0,0,0.05,19,0)" xlink:href="#Q"/><use transform="matrix(0.05,0,0,0.05,24.95,0)" xlink:href="#ay"/><use transform="matrix(0.05,0,0,0.05,34.95,0)" xlink:href="#aa"/><use transform="matrix(0.05,0,0,0.05,38.900000000000006,0)" xlink:href="#ab"/><use transform="matrix(0.05,0,0,0.05,48.900000000000006,0)" xlink:href="#ad"/><use transform="matrix(0.05,0,0,0.05,58.900000000000006,0)" xlink:href="#Q"/><use transform="matrix(0.05,0,0,0.05,64.85000000000001,0)" xlink:href="#au"/></g><path d="M240 0l2-218c-23 76-54 145-80 218h-23L58-218 59 0H30v-248h44l77 211c21-75 51-140 76-211h43V0h-30" id="aB"/><path d="M127-220V0H93v-220H8v-28h204v28h-85" id="aC"/><g id="z"><use transform="matrix(0.05,0,0,0.05,0,0)" xlink:href="#P"/><use transform="matrix(0.05,0,0,0.05,12,0)" xlink:href="#aa"/><use transform="matrix(0.05,0,0,0.05,15.949999999999998,0)" xlink:href="#U"/><use transform="matrix(0.05,0,0,0.05,24.95,0)" xlink:href="#V"/><use transform="matrix(0.05,0,0,0.05,29.950000000000003,0)" xlink:href="#T"/><use transform="matrix(0.05,0,0,0.05,39.95,0)" xlink:href="#Q"/><use transform="matrix(0.05,0,0,0.05,45.900000000000006,0)" xlink:href="#af"/><use transform="matrix(0.05,0,0,0.05,55.900000000000006,0)" xlink:href="#aB"/><use transform="matrix(0.05,0,0,0.05,70.85000000000001,0)" xlink:href="#aa"/><use transform="matrix(0.05,0,0,0.05,74.80000000000001,0)" xlink:href="#ae"/><use transform="matrix(0.05,0,0,0.05,89.75000000000001,0)" xlink:href="#af"/><use transform="matrix(0.05,0,0,0.05,99.75000000000001,0)" xlink:href="#aC"/><use transform="matrix(0.05,0,0,0.05,109.7,0)" xlink:href="#au"/><use transform="matrix(0.05,0,0,0.05,118.7,0)" xlink:href="#ap"/><use transform="matrix(0.05,0,0,0.05,128.70000000000002,0)" xlink:href="#af"/></g><g id="A"><use transform="matrix(0.05,0,0,0.05,0,0)" xlink:href="#ao"/><use transform="matrix(0.05,0,0,0.05,12,0)" xlink:href="#T"/><use transform="matrix(0.05,0,0,0.05,22,0)" xlink:href="#ap"/><use transform="matrix(0.05,0,0,0.05,32,0)" xlink:href="#ap"/><use transform="matrix(0.05,0,0,0.05,42,0)" xlink:href="#aq"/><use transform="matrix(0.05,0,0,0.05,45.95,0)" xlink:href="#aa"/><use transform="matrix(0.05,0,0,0.05,49.900000000000006,0)" xlink:href="#af"/><use transform="matrix(0.05,0,0,0.05,59.900000000000006,0)" xlink:href="#Q"/><use transform="matrix(0.05,0,0,0.05,65.85000000000001,0)" xlink:href="#W"/></g><g id="B"><use transform="matrix(0.05,0,0,0.05,0,0)" xlink:href="#as"/><use transform="matrix(0.05,0,0,0.05,12.950000000000001,0)" xlink:href="#R"/><use transform="matrix(0.05,0,0,0.05,22.950000000000003,0)" xlink:href="#ae"/><use transform="matrix(0.05,0,0,0.05,37.900000000000006,0)" xlink:href="#ap"/><use transform="matrix(0.05,0,0,0.05,47.900000000000006,0)" xlink:href="#ad"/><use transform="matrix(0.05,0,0,0.05,57.900000000000006,0)" xlink:href="#ab"/><use transform="matrix(0.05,0,0,0.05,67.9,0)" xlink:href="#au"/><use transform="matrix(0.05,0,0,0.05,76.9,0)" xlink:href="#ac"/><use transform="matrix(0.05,0,0,0.05,89.85000000000001,0)" xlink:href="#ad"/><use transform="matrix(0.05,0,0,0.05,99.85000000000001,0)" xlink:href="#ae"/><use transform="matrix(0.05,0,0,0.05,114.80000000000001,0)" xlink:href="#af"/></g><g id="C"><use transform="matrix(0.05,0,0,0.05,0,0)" xlink:href="#as"/><use transform="matrix(0.05,0,0,0.05,12.950000000000001,0)" xlink:href="#R"/><use transform="matrix(0.05,0,0,0.05,22.950000000000003,0)" xlink:href="#ab"/><use transform="matrix(0.05,0,0,0.05,32.95,0)" xlink:href="#V"/><use transform="matrix(0.05,0,0,0.05,37.95,0)" xlink:href="#ad"/><use transform="matrix(0.05,0,0,0.05,47.95,0)" xlink:href="#U"/><use transform="matrix(0.05,0,0,0.05,56.95,0)" xlink:href="#V"/><use transform="matrix(0.05,0,0,0.05,61.95,0)" xlink:href="#ac"/><use transform="matrix(0.05,0,0,0.05,74.9,0)" xlink:href="#ad"/><use transform="matrix(0.05,0,0,0.05,84.9,0)" xlink:href="#ae"/><use transform="matrix(0.05,0,0,0.05,99.85000000000001,0)" xlink:href="#af"/></g><path d="M126-127c33 6 58 20 58 59 0 88-139 92-164 29-3-8-5-16-6-25l32-3c6 27 21 44 54 44 32 0 52-15 52-46 0-38-36-46-79-43v-28c39 1 72-4 72-42 0-27-17-43-46-43-28 0-47 15-49 41l-32-3c6-42 35-63 81-64 48-1 79 21 79 65 0 36-21 52-52 59" id="aD"/><g id="D"><use transform="matrix(0.05,0,0,0.05,0,0)" xlink:href="#ab"/><use transform="matrix(0.05,0,0,0.05,10,0)" xlink:href="#ag"/><use transform="matrix(0.05,0,0,0.05,19,0)" xlink:href="#ad"/><use transform="matrix(0.05,0,0,0.05,29,0)" xlink:href="#Q"/><use transform="matrix(0.05,0,0,0.05,34.95,0)" xlink:href="#U"/><use transform="matrix(0.05,0,0,0.05,43.95,0)" xlink:href="#ah"/><use transform="matrix(0.05,0,0,0.05,53.95,0)" xlink:href="#ad"/><use transform="matrix(0.05,0,0,0.05,63.95,0)" xlink:href="#Q"/><use transform="matrix(0.05,0,0,0.05,69.9,0)" xlink:href="#ai"/><use transform="matrix(0.05,0,0,0.05,75.85000000000001,0)" xlink:href="#aD"/><use transform="matrix(0.05,0,0,0.05,85.85000000000001,0)" xlink:href="#ak"/><use transform="matrix(0.05,0,0,0.05,95.85000000000001,0)" xlink:href="#al"/></g><g id="E"><use transform="matrix(0.05,0,0,0.05,0,0)" xlink:href="#as"/><use transform="matrix(0.05,0,0,0.05,12.950000000000001,0)" xlink:href="#R"/><use transform="matrix(0.05,0,0,0.05,22.950000000000003,0)" xlink:href="#ab"/><use transform="matrix(0.05,0,0,0.05,32.95,0)" xlink:href="#V"/><use transform="matrix(0.05,0,0,0.05,37.95,0)" xlink:href="#ad"/><use transform="matrix(0.05,0,0,0.05,47.95,0)" xlink:href="#U"/><use transform="matrix(0.05,0,0,0.05,56.95,0)" xlink:href="#V"/><use transform="matrix(0.05,0,0,0.05,61.95,0)" xlink:href="#aC"/><use transform="matrix(0.05,0,0,0.05,72.25,0)" xlink:href="#aa"/><use transform="matrix(0.05,0,0,0.05,76.2,0)" xlink:href="#V"/><use transform="matrix(0.05,0,0,0.05,81.2,0)" xlink:href="#aq"/><use transform="matrix(0.05,0,0,0.05,85.15,0)" xlink:href="#af"/></g><path d="M205 0l-28-72H64L36 0H1l101-248h38L239 0h-34zm-38-99l-47-123c-12 45-31 82-46 123h93" id="aE"/><g id="F"><use transform="matrix(0.05,0,0,0.05,0,0)" xlink:href="#aE"/><use transform="matrix(0.05,0,0,0.05,12,0)" xlink:href="#S"/><use transform="matrix(0.05,0,0,0.05,22,0)" xlink:href="#S"/><use transform="matrix(0.05,0,0,0.05,32,0)" xlink:href="#Q"/><use transform="matrix(0.05,0,0,0.05,37.95,0)" xlink:href="#af"/><use transform="matrix(0.05,0,0,0.05,47.95,0)" xlink:href="#W"/><use transform="matrix(0.05,0,0,0.05,56.95,0)" xlink:href="#W"/></g><path d="M110-160c48 1 74 30 74 79 0 53-28 85-80 85-65 0-83-55-86-122-5-90 50-162 133-122 14 7 22 21 27 39l-31 6c-5-40-67-38-82-6-9 19-15 44-15 74 11-20 30-34 60-33zm-7 138c34 0 49-23 49-58s-16-56-50-56c-29 0-50 16-49 49 1 36 15 65 50 65" id="aF"/><g id="G"><use transform="matrix(0.05,0,0,0.05,0,0)" xlink:href="#ab"/><use transform="matrix(0.05,0,0,0.05,10,0)" xlink:href="#ag"/><use transform="matrix(0.05,0,0,0.05,19,0)" xlink:href="#ad"/><use transform="matrix(0.05,0,0,0.05,29,0)" xlink:href="#Q"/><use transform="matrix(0.05,0,0,0.05,34.95,0)" xlink:href="#U"/><use transform="matrix(0.05,0,0,0.05,43.95,0)" xlink:href="#ah"/><use transform="matrix(0.05,0,0,0.05,53.95,0)" xlink:href="#ad"/><use transform="matrix(0.05,0,0,0.05,63.95,0)" xlink:href="#Q"/><use transform="matrix(0.05,0,0,0.05,69.9,0)" xlink:href="#ai"/><use transform="matrix(0.05,0,0,0.05,75.85000000000001,0)" xlink:href="#aF"/><use transform="matrix(0.05,0,0,0.05,85.85000000000001,0)" xlink:href="#ak"/><use transform="matrix(0.05,0,0,0.05,95.85000000000001,0)" xlink:href="#al"/></g><g id="H"><use transform="matrix(0.05,0,0,0.05,0,0)" xlink:href="#as"/><use transform="matrix(0.05,0,0,0.05,12.950000000000001,0)" xlink:href="#aa"/><use transform="matrix(0.05,0,0,0.05,16.900000000000002,0)" xlink:href="#V"/><use transform="matrix(0.05,0,0,0.05,21.900000000000002,0)" xlink:href="#au"/></g><path d="M233-177c-1 41-23 64-60 70L243 0h-38l-65-103H63V0H30v-248c88 3 205-21 203 71zM63-129c60-2 137 13 137-47 0-61-80-42-137-45v92" id="aG"/><g id="I"><use transform="matrix(0.05,0,0,0.05,0,0)" xlink:href="#aG"/><use transform="matrix(0.05,0,0,0.05,12.950000000000001,0)" xlink:href="#af"/><use transform="matrix(0.05,0,0,0.05,22.950000000000003,0)" xlink:href="#at"/><use transform="matrix(0.05,0,0,0.05,32.95,0)" xlink:href="#aa"/><use transform="matrix(0.05,0,0,0.05,36.900000000000006,0)" xlink:href="#R"/><use transform="matrix(0.05,0,0,0.05,46.900000000000006,0)" xlink:href="#ab"/></g><g id="J"><use transform="matrix(0.05,0,0,0.05,0,0)" xlink:href="#P"/><use transform="matrix(0.05,0,0,0.05,12,0)" xlink:href="#R"/><use transform="matrix(0.05,0,0,0.05,22,0)" xlink:href="#W"/><use transform="matrix(0.05,0,0,0.05,31,0)" xlink:href="#V"/><use transform="matrix(0.05,0,0,0.05,36,0)" xlink:href="#ad"/><use transform="matrix(0.05,0,0,0.05,46,0)" xlink:href="#aq"/><use transform="matrix(0.05,0,0,0.05,49.95,0)" xlink:href="#as"/><use transform="matrix(0.05,0,0,0.05,62.900000000000006,0)" xlink:href="#R"/><use transform="matrix(0.05,0,0,0.05,72.9,0)" xlink:href="#S"/><use transform="matrix(0.05,0,0,0.05,82.9,0)" xlink:href="#af"/></g><g id="K"><use transform="matrix(0.05,0,0,0.05,0,0)" xlink:href="#ab"/><use transform="matrix(0.05,0,0,0.05,10,0)" xlink:href="#ag"/><use transform="matrix(0.05,0,0,0.05,19,0)" xlink:href="#ad"/><use transform="matrix(0.05,0,0,0.05,29,0)" xlink:href="#Q"/><use transform="matrix(0.05,0,0,0.05,34.95,0)" xlink:href="#U"/><use transform="matrix(0.05,0,0,0.05,43.95,0)" xlink:href="#ah"/><use transform="matrix(0.05,0,0,0.05,53.95,0)" xlink:href="#ad"/><use transform="matrix(0.05,0,0,0.05,63.95,0)" xlink:href="#Q"/><use transform="matrix(0.05,0,0,0.05,69.9,0)" xlink:href="#ai"/><use transform="matrix(0.05,0,0,0.05,75.85000000000001,0)" xlink:href="#an"/><use transform="matrix(0.05,0,0,0.05,85.85000000000001,0)" xlink:href="#ak"/><use transform="matrix(0.05,0,0,0.05,95.85000000000001,0)" xlink:href="#al"/></g><g id="L"><use transform="matrix(0.05,0,0,0.05,0,0)" xlink:href="#as"/><use transform="matrix(0.05,0,0,0.05,12.950000000000001,0)" xlink:href="#R"/><use transform="matrix(0.05,0,0,0.05,22.950000000000003,0)" xlink:href="#T"/><use transform="matrix(0.05,0,0,0.05,32.95,0)" xlink:href="#ab"/><use transform="matrix(0.05,0,0,0.05,42.95,0)" xlink:href="#V"/><use transform="matrix(0.05,0,0,0.05,47.95,0)" xlink:href="#Q"/><use transform="matrix(0.05,0,0,0.05,53.900000000000006,0)" xlink:href="#au"/></g><g id="M"><use transform="matrix(0.05,0,0,0.05,0,0)" xlink:href="#P"/><use transform="matrix(0.05,0,0,0.05,12,0)" xlink:href="#ah"/><use transform="matrix(0.05,0,0,0.05,22,0)" xlink:href="#R"/><use transform="matrix(0.05,0,0,0.05,32,0)" xlink:href="#ab"/><use transform="matrix(0.05,0,0,0.05,42,0)" xlink:href="#af"/></g><g id="N"><use transform="matrix(0.05,0,0,0.05,0,0)" xlink:href="#ab"/><use transform="matrix(0.05,0,0,0.05,10,0)" xlink:href="#ag"/><use transform="matrix(0.05,0,0,0.05,19,0)" xlink:href="#ad"/><use transform="matrix(0.05,0,0,0.05,29,0)" xlink:href="#Q"/><use transform="matrix(0.05,0,0,0.05,34.95,0)" xlink:href="#U"/><use transform="matrix(0.05,0,0,0.05,43.95,0)" xlink:href="#ah"/><use transform="matrix(0.05,0,0,0.05,53.95,0)" xlink:href="#ad"/><use transform="matrix(0.05,0,0,0.05,63.95,0)" xlink:href="#Q"/><use transform="matrix(0.05,0,0,0.05,69.9,0)" xlink:href="#ai"/><use transform="matrix(0.05,0,0,0.05,75.85000000000001,0)" xlink:href="#ar"/><use transform="matrix(0.05,0,0,0.05,85.85000000000001,0)" xlink:href="#aj"/><use transform="matrix(0.05,0,0,0.05,95.85000000000001,0)" xlink:href="#al"/></g><g id="O"><use transform="matrix(0.05,0,0,0.05,0,0)" xlink:href="#am"/><use transform="matrix(0.05,0,0,0.05,10.950000000000001,0)" xlink:href="#ad"/><use transform="matrix(0.05,0,0,0.05,20.950000000000003,0)" xlink:href="#aA"/></g></defs></g></svg>